<svg width="32" height="32" viewBox="0 0 512 512" fill="none" xmlns="http://www.w3.org/2000/svg">
<g clip-path="url(#clip0_46_59)">
<path d="M163.313 42.5224C131.66 42.5224 106 68.1825 106 99.8358C106 131.489 131.66 157.149 163.313 157.149L349.582 157.149C381.235 157.149 406.896 131.489 406.896 99.8358C406.896 68.1825 381.235 42.5224 349.582 42.5224L163.313 42.5224Z" fill="#F46181"/>
<path d="M403.252 120.328C414.049 90.6642 399.899 58.2808 371.647 47.9982C343.396 37.7155 311.741 53.4273 300.944 83.0915L180.389 414.315C169.592 443.979 183.742 476.362 211.993 486.645C240.245 496.928 271.899 481.216 282.696 451.551L403.252 120.328Z" fill="#37D0DE"/>
<mask id="mask0_46_59" style="mask-type:alpha" maskUnits="userSpaceOnUse" x="176" y="44" width="237" height="448">
<path d="M409.034 121.256C419.86 91.5114 404.524 58.6225 374.779 47.7964C345.035 36.9704 312.146 52.3067 301.32 82.0511L180.439 414.169C169.613 443.914 184.949 476.803 214.693 487.629C244.438 498.455 277.327 483.118 288.153 453.374L409.034 121.256Z" fill="white"/>
</mask>
<g mask="url(#mask0_46_59)">
<path d="M163.313 42.5224C131.66 42.5224 106 68.1825 106 99.8359C106 131.489 131.66 157.149 163.313 157.149L349.582 157.149C381.235 157.149 406.896 131.489 406.896 99.8359C406.896 68.1825 381.235 42.5224 349.582 42.5224L163.313 42.5224Z" fill="#6D70E3"/>
</g>
</g>
<defs>
<clipPath id="clip0_46_59">
<rect width="320" height="480" fill="white" transform="translate(106 27)"/>
</clipPath>
</defs>
</svg>
